<?xml version="1.0" encoding="UTF-8" standalone="no"?>
<!-- Created with Inkscape (http://www.inkscape.org/) -->

<svg
   width="32"
   height="32"
   viewBox="0 0 8.4666664 8.4666666"
   version="1.1"
   id="svg1"
   inkscape:version="1.3.2 (091e20e, 2023-11-25, custom)"
   sodipodi:docname="claw_bot.svg"
   xmlns:inkscape="http://www.inkscape.org/namespaces/inkscape"
   xmlns:sodipodi="http://sodipodi.sourceforge.net/DTD/sodipodi-0.dtd"
   xmlns="http://www.w3.org/2000/svg"
   xmlns:svg="http://www.w3.org/2000/svg">
  <sodipodi:namedview
     id="namedview1"
     pagecolor="#ffffff"
     bordercolor="#000000"
     borderopacity="0.25"
     inkscape:showpageshadow="2"
     inkscape:pageopacity="0.0"
     inkscape:pagecheckerboard="0"
     inkscape:deskcolor="#d1d1d1"
     inkscape:document-units="mm"
     inkscape:zoom="15.662534"
     inkscape:cx="28.826753"
     inkscape:cy="17.270513"
     inkscape:window-width="1920"
     inkscape:window-height="991"
     inkscape:window-x="-9"
     inkscape:window-y="-9"
     inkscape:window-maximized="1"
     inkscape:current-layer="layer1" />
  <defs
     id="defs1" />
  <g
     inkscape:label="Layer 1"
     inkscape:groupmode="layer"
     id="layer1">
    <rect
       style="fill:#b3b3b3;stroke:none;stroke-width:0.239721;stroke-linecap:round;stroke-linejoin:round;stroke-dasharray:none;stroke-opacity:1"
       id="rect1"
       width="5.5746088"
       height="6.3178897"
       x="1.5034553"
       y="0.74328119" />
    <path
       id="path1"
       style="fill:#3d3d3d;stroke:#000000;stroke-width:0.264578;stroke-linecap:round;stroke-linejoin:round;stroke-dasharray:none;stroke-opacity:1"
       d="M 1.2638376,6.7373475 A 0.7987938,0.79886253 0 0 0 0.46539957,7.5358624 0.7987938,0.79886253 0 0 0 1.2638376,8.3343775 H 7.2028249 A 0.7987855,0.79886253 0 0 0 8.0012628,7.5358624 0.7987855,0.79886253 0 0 0 7.2028249,6.7373475 Z" />
    <path
       style="fill:#b3b3b3;stroke:none;stroke-width:0.329982;stroke-linecap:round;stroke-linejoin:round;stroke-dasharray:none;stroke-opacity:1"
       id="path2"
       sodipodi:type="arc"
       sodipodi:cx="-4.4034858"
       sodipodi:cy="-1.6007875"
       sodipodi:rx="0.73742729"
       sodipodi:ry="0.73742729"
       sodipodi:start="0"
       sodipodi:end="4.7406378"
       sodipodi:arc-type="slice"
       d="m -3.6660585,-1.6007875 a 0.73742729,0.73742729 0 0 1 -0.4600445,0.68326992 0.73742729,0.73742729 0 0 1 -0.8061354,-0.16924692 0.73742729,0.73742729 0 0 1 -0.14641,-0.8105941 0.73742729,0.73742729 0 0 1 0.6959913,-0.440562 l -0.020829,0.7371331 z"
       transform="rotate(-120)" />
    <ellipse
       style="fill:#ff0000;stroke:none;stroke-width:0.225864;stroke-linecap:round;stroke-linejoin:round;stroke-dasharray:none;stroke-opacity:1"
       id="path3"
       cx="1.9052246"
       cy="1.930732"
       rx="0.13736728"
       ry="0.77206886" />
  </g>
</svg>
